<svg width="20" height="20" viewBox="0 0 20 20" xmlns="http://www.w3.org/2000/svg"
    fill="#64748B">
    <path fill-rule="evenodd" clip-rule="evenodd"
        d="M8.22441 1.73564C8.4681 1.18734 9.01183 0.833984 9.61184 0.833984C11.2069 0.833984 12.5 2.12708 12.5 3.72218V6.66732H15.4193C17.4623 6.66732 19.0246 8.48831 18.7139 10.5075L17.8165 16.3408C17.5663 17.9669 16.1671 19.1673 14.5219 19.1673H3.33337C1.95266 19.1673 0.833374 18.048 0.833374 16.6673V10.834C0.833374 9.45327 1.95266 8.33398 3.33337 8.33398H5.29181L8.22441 1.73564ZM6.66671 17.5006H14.5219C15.3445 17.5006 16.0441 16.9005 16.1692 16.0874L17.0666 10.2541C17.222 9.24448 16.4408 8.33398 15.4193 8.33398H12.5C11.5796 8.33398 10.8334 7.58779 10.8334 6.66732V3.72218C10.8334 3.07946 10.337 2.55267 9.70666 2.50428L6.81483 9.01088C6.77313 9.10472 6.72341 9.19336 6.66671 9.27614V17.5006ZM5.00004 10.0007V17.5006H3.33337C2.87314 17.5006 2.50004 17.1276 2.50004 16.6673V10.834C2.50004 10.3737 2.87314 10.0007 3.33337 10.0007H5.00004Z"
    />
</svg>
    