<svg width="20" height="20" viewBox="0 0 20 20" fill="#64748B" xmlns="http://www.w3.org/2000/svg">
    <path fill-rule="evenodd" clip-rule="evenodd"
        d="M16.6935 2.52059C16.4574 2.5013 16.1471 2.50065 15.6667 2.50065H15V10.0006C15.0112 10.0006 15.0223 10.0007 15.0332 10.0007H15.6667C16.1471 10.0007 16.4574 10 16.6935 9.98071C16.9199 9.96222 17.0038 9.93082 17.045 9.90982C17.2018 9.82993 17.3293 9.70245 17.4092 9.54564C17.4302 9.50444 17.4616 9.42051 17.4801 9.19412C17.4994 8.95801 17.5 8.64778 17.5 8.16732V4.33399C17.5 3.85352 17.4994 3.5433 17.4801 3.30718C17.4616 3.0808 17.4302 2.99686 17.4092 2.95566C17.3293 2.79886 17.2018 2.67138 17.045 2.59148C17.0038 2.57049 16.9199 2.53909 16.6935 2.52059ZM13.3333 10.7321V2.50065H6.76502C6.14344 2.50065 5.72368 2.50121 5.39665 2.52611C5.08005 2.55021 4.9125 2.59384 4.79027 2.64923C4.50127 2.78017 4.25566 2.99089 4.0823 3.25661C4.00897 3.36899 3.94036 3.52797 3.8684 3.83722C3.79407 4.15666 3.72969 4.57145 3.63518 5.1858L3.19928 8.01914C3.07491 8.82755 2.99045 9.38131 2.96178 9.81119C2.93365 10.2331 2.96743 10.4477 3.02347 10.5946C3.16132 10.956 3.4206 11.2583 3.75687 11.4495C3.89355 11.5272 4.10053 11.5932 4.5218 11.6296C4.95103 11.6666 5.5112 11.6673 6.32912 11.6673L7.02658 11.6673C7.2369 11.6673 7.44173 11.6673 7.6152 11.6814C7.8057 11.697 8.03047 11.7337 8.25666 11.849C8.57026 12.0088 8.82523 12.2637 8.98502 12.5773C9.10027 12.8035 9.13699 13.0283 9.15255 13.2188C9.16673 13.3923 9.1667 13.5971 9.16668 13.8074L9.16668 16.2791C9.16668 16.9218 9.66307 17.4486 10.2934 17.497L13.0532 11.2874C13.062 11.2677 13.0709 11.2475 13.08 11.2267C13.1464 11.0757 13.2245 10.8982 13.3333 10.7321ZM15.6988 0.833985C16.1381 0.83397 16.5171 0.833957 16.8292 0.85946C17.1587 0.886378 17.4863 0.945808 17.8017 1.10647C18.2721 1.34615 18.6545 1.7286 18.8942 2.19901C19.0549 2.51433 19.1143 2.84201 19.1412 3.17146C19.1667 3.4836 19.1667 3.86256 19.1667 4.30185V8.19946C19.1667 8.63874 19.1667 9.0177 19.1412 9.32984C19.1143 9.6593 19.0549 9.98698 18.8942 10.3023C18.6545 10.7727 18.2721 11.1552 17.8017 11.3948C17.4863 11.5555 17.1587 11.6149 16.8292 11.6418C16.5171 11.6673 16.1381 11.6673 15.6988 11.6673H15.0332C14.8659 11.6673 14.7794 11.6677 14.7169 11.6718C14.715 11.6719 14.7131 11.672 14.7114 11.6721C14.7105 11.6737 14.7097 11.6753 14.7088 11.677C14.6797 11.7325 14.6442 11.8114 14.5763 11.9642L11.7756 18.2657C11.532 18.814 10.9882 19.1673 10.3882 19.1673C8.7931 19.1673 7.50001 17.8742 7.50001 16.2791V13.834C7.50001 13.5869 7.49936 13.4517 7.49142 13.3545C7.49111 13.3506 7.49079 13.347 7.49047 13.3435C7.48701 13.3432 7.48335 13.3429 7.47948 13.3426C7.38233 13.3346 7.24712 13.334 7.00001 13.334H6.29182C5.52036 13.334 4.88794 13.334 4.37853 13.2901C3.85295 13.2447 3.37101 13.1473 2.93303 12.8983C2.2605 12.5159 1.74194 11.9114 1.46623 11.1886C1.28667 10.7178 1.26371 10.2267 1.29881 9.7003C1.33283 9.19013 1.429 8.56507 1.54632 7.80257L1.99265 4.9014C2.08119 4.32586 2.15469 3.84803 2.2451 3.45949C2.3395 3.05381 2.46472 2.68574 2.68645 2.34589C3.03319 1.81445 3.52441 1.39303 4.10239 1.13113C4.472 0.963658 4.85483 0.895862 5.27015 0.864248C5.66792 0.833968 6.15137 0.833976 6.73368 0.833985L15.6988 0.833985Z"
    />
</svg>
    