<svg width="20" height="20" viewBox="0 0 20 20" fill="none" xmlns="http://www.w3.org/2000/svg">
    <g clip-path="url(#clip0_2489_20380)">
        <path fill-rule="evenodd" clip-rule="evenodd"
            d="M9.99998 2.50065C5.85784 2.50065 2.49998 5.85851 2.49998 10.0007C2.49998 14.1428 5.85784 17.5006 9.99998 17.5006C14.1421 17.5006 17.5 14.1428 17.5 10.0007C17.5 5.85851 14.1421 2.50065 9.99998 2.50065ZM0.833313 10.0007C0.833313 4.93804 4.93737 0.833984 9.99998 0.833984C15.0626 0.833984 19.1666 4.93804 19.1666 10.0007C19.1666 15.0633 15.0626 19.1673 9.99998 19.1673C4.93737 19.1673 0.833313 15.0633 0.833313 10.0007ZM10.2151 6.68758C9.82714 6.62104 9.42818 6.69394 9.08884 6.89337C8.74951 7.0928 8.4917 7.40589 8.36109 7.77719C8.20836 8.21134 7.7326 8.43949 7.29844 8.28676C6.86428 8.13404 6.63614 7.65827 6.78887 7.22411C7.05009 6.48152 7.5657 5.85534 8.24437 5.45648C8.92304 5.05762 9.72097 4.91182 10.4968 5.04491C11.2727 5.17799 11.9764 5.58136 12.4834 6.18359C12.9902 6.78569 13.2677 7.54772 13.2666 8.33474C13.2663 9.61004 12.3208 10.4522 11.6456 10.9024C11.2825 11.1444 10.9254 11.3223 10.6624 11.4392C10.5297 11.4982 10.4179 11.543 10.3374 11.5737C10.2971 11.589 10.2644 11.6009 10.2406 11.6094L10.2116 11.6195L10.2024 11.6227L10.1992 11.6238L10.1979 11.6242C10.1976 11.6243 10.1968 11.6246 9.93331 10.834L10.1968 11.6246C9.76022 11.7701 9.28828 11.5341 9.14274 11.0975C8.99725 10.661 9.23301 10.1893 9.66935 10.0436L9.68221 10.039C9.69503 10.0345 9.71604 10.0269 9.74407 10.0162C9.80026 9.99477 9.88382 9.96141 9.98549 9.91622C10.1912 9.8248 10.4591 9.69026 10.7211 9.51561C11.2957 9.1325 11.6 8.72493 11.6 8.33398L11.6 8.33274C11.6006 7.93914 11.4618 7.55804 11.2084 7.25692C10.9549 6.95581 10.603 6.75412 10.2151 6.68758ZM9.16665 14.1673C9.16665 13.7071 9.53974 13.334 9.99998 13.334H10.0083C10.4685 13.334 10.8416 13.7071 10.8416 14.1673C10.8416 14.6276 10.4685 15.0006 10.0083 15.0006H9.99998C9.53974 15.0006 9.16665 14.6276 9.16665 14.1673Z"
            fill="#9CA3AF" />
    </g>
    <defs>
        <clipPath id="clip0_2489_20380">
            <rect width="20" height="20" fill="white" />
        </clipPath>
    </defs>
</svg>
    