<svg width="18" height="18" viewBox="0 0 18 18" fill="#111827" xmlns="http://www.w3.org/2000/svg">
    <path
        d="M4.0017 3.66833C4.19377 3.68781 4.46429 3.71508 4.73481 3.7429C4.9266 3.76266 5.11811 3.78992 5.31046 3.80133C5.74542 3.82777 6.15329 3.5818 6.33391 3.18698C6.49667 2.83138 6.64184 2.46744 6.81633 2.11769C7.20075 1.34724 7.82693 0.888422 8.68344 0.773508C9.45982 0.669446 10.1335 0.910125 10.6977 1.44991C10.9478 1.6892 11.1212 1.9808 11.2571 2.29716C11.387 2.59905 11.5218 2.899 11.6608 3.19671C11.8523 3.60684 12.2976 3.84724 12.7465 3.79716C13.16 3.75097 13.574 3.68364 13.9886 3.67585C14.9587 3.65804 15.7161 4.07178 16.1818 4.92125C16.6672 5.80662 16.588 6.68558 16.0109 7.51474C15.811 7.80189 15.5988 8.08069 15.3925 8.36366C15.112 8.74847 15.1109 9.25737 15.39 9.64301C15.6254 9.968 15.8747 10.2838 16.0938 10.6194C17.0017 12.0083 16.2538 13.8726 14.6396 14.2668C14.2993 14.35 13.959 14.3447 13.6148 14.303C13.2987 14.2646 12.9819 14.229 12.6645 14.2048C12.2295 14.1717 11.8177 14.4421 11.6284 14.8667C11.4626 15.239 11.3138 15.6208 11.1203 15.9786C10.7298 16.7014 10.1125 17.1266 9.29399 17.2304C8.27138 17.3598 7.31772 16.8581 6.84704 15.9455C6.66278 15.5882 6.51203 15.2137 6.34983 14.8456C6.15664 14.4073 5.70326 14.1514 5.22587 14.2065C4.82861 14.2524 4.43135 14.3049 4.03241 14.3255C3.3381 14.3617 2.73509 14.1288 2.23397 13.6483C1.84983 13.2802 1.61504 12.8294 1.53269 12.3044C1.42939 11.6486 1.57596 11.0481 1.96094 10.5075C2.16529 10.2204 2.37635 9.93795 2.58405 9.65359C2.8797 9.24874 2.88137 8.75848 2.5874 8.35392C2.38026 8.06872 2.17171 7.78436 1.96429 7.49944C1.29064 6.57373 1.35597 5.32053 2.12202 4.46633C2.57149 3.96522 3.24207 3.66805 4.00198 3.66917L4.0017 3.66833ZM14.981 6.01335C14.9822 5.55898 14.5425 5.13578 14.0215 5.17251C13.6971 5.19532 13.3736 5.23567 13.0506 5.27351C12.765 5.3069 12.4808 5.31886 12.1963 5.266C11.347 5.10823 10.7181 4.64941 10.3264 3.88341C10.1463 3.53116 9.99946 3.16249 9.83336 2.803C9.67032 2.45019 9.39031 2.25542 9.00086 2.25264C8.60806 2.24958 8.32414 2.44268 8.15748 2.79688C8.03827 3.05036 7.92381 3.30606 7.81577 3.56427C7.65748 3.94184 7.46038 4.29243 7.15971 4.5779C6.64324 5.06872 6.02654 5.31803 5.31577 5.29883C4.92632 5.28825 4.53771 5.23233 4.14994 5.18725C3.92074 5.16054 3.69879 5.16165 3.49193 5.27573C2.9883 5.55314 2.8529 6.16638 3.19098 6.63021C3.3945 6.90957 3.59941 7.18781 3.80237 7.46744C4.47936 8.40066 4.48299 9.58931 3.81102 10.5223C3.5955 10.8214 3.36909 11.113 3.16222 11.4179C2.95703 11.7204 2.94558 12.0467 3.12453 12.3648C3.30488 12.6853 3.59327 12.8453 3.9615 12.828C4.23955 12.815 4.51677 12.7763 4.79371 12.7432C5.15748 12.6998 5.51984 12.6706 5.88277 12.7518C6.6759 12.929 7.27445 13.3678 7.64798 14.0871C7.83866 14.4541 7.98913 14.8414 8.16446 15.2165C8.32749 15.5648 8.61253 15.7499 8.99388 15.7499C9.385 15.7499 9.66892 15.5543 9.83364 15.1989C9.95256 14.9427 10.0679 14.6845 10.1781 14.4243C10.3269 14.074 10.5081 13.7454 10.7817 13.4738C11.3116 12.948 11.9509 12.6806 12.6977 12.709C13.1081 12.7245 13.5171 12.7827 13.926 12.8258C14.3191 12.8673 14.631 12.7337 14.8431 12.3996C15.0455 12.081 15.0235 11.6939 14.7973 11.3815C14.6273 11.1466 14.4609 10.909 14.2837 10.6797C13.9802 10.2869 13.7666 9.85698 13.7021 9.3606C13.615 8.69059 13.7611 8.0754 14.1485 7.52142C14.3624 7.21536 14.588 6.91764 14.8077 6.61575C14.923 6.45715 14.9819 6.27963 14.9816 6.01391L14.981 6.01335Z" />
    <path
        d="M5.98353 9.00682C5.97879 7.34516 7.32636 6.0007 8.9961 6.00181C10.6485 6.00292 11.9986 7.34043 12.0042 8.97816C12.0101 10.6501 10.6697 11.9757 9.04216 12.001C7.34674 12.0274 5.98046 10.6607 5.98353 9.00654V9.00682ZM7.48912 8.99903C7.48995 9.82652 8.15969 10.501 8.98018 10.5007C9.82636 10.5001 10.4986 9.83375 10.4981 8.99624C10.4975 8.17154 9.82133 7.5007 8.99107 7.50125C8.15969 7.50181 7.48828 8.17126 7.48912 8.99903Z" />
</svg>