<svg width="16" height="16" viewBox="0 0 16 16" fill="#111827" xmlns="http://www.w3.org/2000/svg">
    <path fill-rule="evenodd" clip-rule="evenodd"
        d="M1.33325 7.99967C1.33325 4.31778 4.31802 1.33301 7.99992 1.33301C11.6818 1.33301 14.6666 4.31778 14.6666 7.99967C14.6666 11.6816 11.6818 14.6663 7.99992 14.6663C7.11437 14.6663 6.26758 14.4933 5.49273 14.1786C5.42274 14.1502 5.38233 14.1339 5.3525 14.1227C5.34897 14.1213 5.3459 14.1202 5.34328 14.1193C5.34229 14.1194 5.34124 14.1195 5.34011 14.1197C5.31551 14.123 5.28198 14.1285 5.21795 14.1392L2.84603 14.5345C2.83969 14.5356 2.83331 14.5366 2.82688 14.5377C2.7198 14.5556 2.59999 14.5756 2.49594 14.5835C2.38249 14.592 2.202 14.595 2.01125 14.5132C1.77545 14.4121 1.58754 14.2241 1.4864 13.9883C1.40459 13.7976 1.40757 13.6171 1.41614 13.5036C1.42399 13.3996 1.444 13.2798 1.46188 13.1727C1.46295 13.1663 1.46402 13.1599 1.46507 13.1536L1.86039 10.7816C1.87107 10.7176 1.87658 10.6841 1.87992 10.6595C1.88007 10.6584 1.88021 10.6573 1.88034 10.6563C1.87939 10.6537 1.87826 10.6506 1.87694 10.6471C1.86573 10.6173 1.84938 10.5769 1.82096 10.5069C1.50627 9.73201 1.33325 8.88522 1.33325 7.99967ZM7.99992 2.66634C5.0544 2.66634 2.66659 5.05416 2.66659 7.99967C2.66659 8.71032 2.80522 9.38693 3.0563 10.0052C3.06027 10.0149 3.06435 10.0249 3.06852 10.0351C3.10922 10.1348 3.15763 10.2534 3.18244 10.3641C3.20498 10.4646 3.21471 10.5525 3.21472 10.6555C3.21474 10.7686 3.19546 10.8829 3.17991 10.9751C3.17843 10.9839 3.17698 10.9925 3.17559 11.0008L2.81095 13.1886L4.99875 12.824C5.00711 12.8226 5.01568 12.8212 5.02446 12.8197C5.11669 12.8041 5.23102 12.7849 5.34409 12.7849C5.44713 12.7849 5.53501 12.7946 5.63554 12.8172C5.74623 12.842 5.86477 12.8904 5.96446 12.9311C5.97466 12.9352 5.98466 12.9393 5.99443 12.9433C6.61266 13.1944 7.28927 13.333 7.99992 13.333C10.9454 13.333 13.3333 10.9452 13.3333 7.99967C13.3333 5.05416 10.9454 2.66634 7.99992 2.66634ZM3.99992 7.99967C3.99992 7.44739 4.44763 6.99967 4.99992 6.99967C5.5522 6.99967 5.99992 7.44739 5.99992 7.99967C5.99992 8.55196 5.5522 8.99967 4.99992 8.99967C4.44763 8.99967 3.99992 8.55196 3.99992 7.99967ZM6.99992 7.99967C6.99992 7.44739 7.44763 6.99967 7.99992 6.99967C8.5522 6.99967 8.99992 7.44739 8.99992 7.99967C8.99992 8.55196 8.5522 8.99967 7.99992 8.99967C7.44763 8.99967 6.99992 8.55196 6.99992 7.99967ZM9.99992 7.99967C9.99992 7.44739 10.4476 6.99967 10.9999 6.99967C11.5522 6.99967 11.9999 7.44739 11.9999 7.99967C11.9999 8.55196 11.5522 8.99967 10.9999 8.99967C10.4476 8.99967 9.99992 8.55196 9.99992 7.99967Z"
    />
</svg>